HIERARCHY
ROOT joint_Root
{
	OFFSET 0.0 0.0 0.0
	CHANNELS 6 Xposition Yposition Zposition Zrotation Xrotation Yrotation 
	JOINT Hips
	{
		OFFSET -17.1583 93.1646 452.98
		CHANNELS 6 Xposition Yposition Zposition Zrotation Xrotation Yrotation 
		JOINT Spine
		{
			OFFSET 15.7357 0.0 0.0
			CHANNELS 6 Xposition Yposition Zposition Zrotation Xrotation Yrotation 
			JOINT Chest
			{
				OFFSET 8.98455 -0.406207 0.0
				CHANNELS 6 Xposition Yposition Zposition Zrotation Xrotation Yrotation 
				JOINT Neck
				{
					OFFSET 16.3773 0.0 0.0
					CHANNELS 6 Xposition Yposition Zposition Zrotation Xrotation Yrotation 
					JOINT Head
					{
						OFFSET 6.45672 0.0 0.0
						CHANNELS 6 Xposition Yposition Zposition Zrotation Xrotation Yrotation 
						End Site
						{
							OFFSET 0.0 0.0 0.0
						}
					}
				}
				JOINT Shoulder_L
				{
					OFFSET 12.9942 -0.242716 4.98039
					CHANNELS 6 Xposition Yposition Zposition Zrotation Xrotation Yrotation 
					JOINT UpperArm_L
					{
						OFFSET 5.34809 0.0 0.0
						CHANNELS 6 Xposition Yposition Zposition Zrotation Xrotation Yrotation 
						JOINT LowerArm_L
						{
							OFFSET 24.3286 1.87007e-05 0.0
							CHANNELS 6 Xposition Yposition Zposition Zrotation Xrotation Yrotation 
							JOINT Hand_L
							{
								OFFSET 22.2916 0.0 0.0
								CHANNELS 6 Xposition Yposition Zposition Zrotation Xrotation Yrotation 
								End Site
								{
									OFFSET 0.0 0.0 0.0
								}
							}
						}
					}
				}
				JOINT Shoulder_R
				{
					OFFSET 12.9945 -0.242716 -4.98039
					CHANNELS 6 Xposition Yposition Zposition Zrotation Xrotation Yrotation 
					JOINT UpperArm_R
					{
						OFFSET -5.34813 0.0 0.0
						CHANNELS 6 Xposition Yposition Zposition Zrotation Xrotation Yrotation 
						JOINT LowerArm_R
						{
							OFFSET -24.3289 0.000322201 0.0
							CHANNELS 6 Xposition Yposition Zposition Zrotation Xrotation Yrotation 
							JOINT Hand_R
							{
								OFFSET -22.2915 -0.000108084 0.0
								CHANNELS 6 Xposition Yposition Zposition Zrotation Xrotation Yrotation 
								End Site
								{
									OFFSET 0.0 0.0 0.0
								}
							}
						}
					}
				}
			}
		}
		JOINT UpperLeg_L
		{
			OFFSET -2.19248 -6.46944 0.0
			CHANNELS 6 Xposition Yposition Zposition Zrotation Xrotation Yrotation 
			JOINT LowerLeg_L
			{
				OFFSET 39.0811 0.0 -1.23785e-05
				CHANNELS 6 Xposition Yposition Zposition Zrotation Xrotation Yrotation 
				JOINT Foot_L
				{
					OFFSET 40.9854 0.0 -1.26872e-05
					CHANNELS 6 Xposition Yposition Zposition Zrotation Xrotation Yrotation 
					JOINT Toes_L
					{
						OFFSET 11.7543 0.0 0.0
						CHANNELS 6 Xposition Yposition Zposition Zrotation Xrotation Yrotation 
						End Site
						{
							OFFSET 0.0 0.0 0.0
						}
					}
				}
			}
		}
		JOINT UpperLeg_R
		{
			OFFSET -2.19251 6.46944 0.0
			CHANNELS 6 Xposition Yposition Zposition Zrotation Xrotation Yrotation 
			JOINT LowerLeg_R
			{
				OFFSET -39.0811 -0.00228153 -0.0401928
				CHANNELS 6 Xposition Yposition Zposition Zrotation Xrotation Yrotation 
				JOINT Foot_R
				{
					OFFSET -40.9854 0.0 0.0
					CHANNELS 6 Xposition Yposition Zposition Zrotation Xrotation Yrotation 
					JOINT Toes_R
					{
						OFFSET -11.7543 0.0 0.0
						CHANNELS 6 Xposition Yposition Zposition Zrotation Xrotation Yrotation 
						End Site
						{
							OFFSET 0.0 0.0 0.0
						}
					}
				}
			}
		}
	}
}
MOTION
Frames:	5
Frame Time:	0.0333333
0.000000 0.000000 0.000000 0.000000 0.000000 -0.000000 -4.747500 93.028200 -0.284215 87.052400 1.436610 2.517770 15.735700 0.000005 -0.000001 71.411200 86.853700 -69.341700 8.984550 -0.406207 -0.000000 -1.759330 -2.177410 4.105160 16.377300 -0.000001 -0.000001 3.460590 1.080530 -1.229180 6.456720 -0.000001 -0.000000 1.780270 2.297820 -0.421512 12.994200 -0.242716 4.980390 -92.864400 9.122760 -72.485600 5.348090 -0.000007 -0.000001 -73.630800 21.424900 1.293740 24.328600 0.000019 0.000005 9.769860 23.809900 -23.099200 22.291600 -0.000001 0.000005 -1.101360 5.021240 6.864530 12.994500 -0.242716 -4.980390 88.996500 3.336700 -73.250800 -5.348130 -0.000001 -0.000004 -70.019600 26.675300 -3.583670 -24.328900 0.000322 -0.000009 2.331040 6.980830 -18.525200 -22.291500 -0.000108 -0.000004 -11.680100 5.295640 0.177930 -2.192480 -6.469440 -0.000000 -169.061000 -4.285450 1.457570 39.081100 -0.000007 -0.000012 0.021479 -0.092052 13.134200 40.985400 -0.000006 -0.000013 -4.346140 13.978700 -67.543800 11.754300 -0.000000 0.000003 -0.000173 0.170487 -9.661780 -2.192510 6.469440 -0.000001 -179.022000 7.442000 -178.258000 -39.081100 -0.002282 -0.040193 0.038670 -0.146614 13.551000 -40.985400 0.000008 0.000006 -2.067790 5.688800 -68.843800 -11.754300 -0.000006 -0.000006 -0.008351 0.258541 -6.072720
0.000000 0.000000 0.000000 0.000000 0.000000 -0.000000 -4.517660 93.014200 -0.046776 87.114700 1.854030 2.895670 15.735700 0.000005 -0.000001 67.377500 86.601800 -65.204300 8.984550 -0.406207 -0.000000 -1.436430 -2.788120 4.310760 16.377300 -0.000001 -0.000001 3.902350 1.123360 -1.018570 6.456720 -0.000001 -0.000000 1.005210 2.920860 -1.499690 12.994200 -0.242716 4.980390 -92.997100 9.489400 -72.381600 5.348090 -0.000007 -0.000001 -73.485400 19.617200 1.973340 24.328600 0.000019 0.000005 10.236900 23.737800 -24.162200 22.291600 -0.000001 0.000005 -1.683930 5.044850 6.349930 12.994500 -0.242716 -4.980390 88.951100 3.321910 -72.466000 -5.348130 -0.000001 -0.000004 -67.168900 23.930000 -5.129250 -24.328900 0.000322 -0.000009 1.920850 6.269250 -17.079500 -22.291500 -0.000108 -0.000004 -15.549300 5.324390 -0.620396 -2.192480 -6.469440 -0.000000 -169.251000 -3.965040 1.788360 39.081100 -0.000007 -0.000012 0.024261 -0.102432 13.325200 40.985400 -0.000006 -0.000013 -4.120170 14.139600 -67.735600 11.754300 -0.000000 0.000003 -0.000405 0.174190 -9.511380 -2.192510 6.469440 -0.000001 -179.405000 8.201360 -177.549000 -39.081100 -0.002282 -0.040193 0.034476 -0.131434 13.330200 -40.985400 0.000008 0.000006 -2.225130 6.087210 -68.799800 -11.754300 -0.000006 -0.000006 -0.008545 0.260088 -6.009510
0.000000 0.000000 0.000000 0.000000 0.000000 -0.000000 -4.321330 93.017100 0.134766 87.227100 2.313230 2.898500 15.735700 0.000005 -0.000001 64.187300 86.475400 -62.105100 8.984550 -0.406207 -0.000000 -1.358470 -3.234490 4.125600 16.377300 -0.000001 -0.000001 4.087810 0.993196 -0.618549 6.456720 -0.000001 -0.000000 0.184919 3.348680 -2.410760 12.994200 -0.242716 4.980390 -93.101700 9.849560 -72.423500 5.348090 -0.000007 -0.000001 -72.585400 18.879300 2.454020 24.328600 0.000019 0.000005 10.097400 22.458400 -24.993400 22.291600 -0.000001 0.000005 -1.891650 5.063600 5.936030 12.994500 -0.242716 -4.980390 88.954100 3.192810 -71.850700 -5.348130 -0.000001 -0.000004 -64.023100 17.754000 -6.694370 -24.328900 0.000322 -0.000009 1.655260 6.393290 -14.559000 -22.291500 -0.000108 -0.000004 -18.065700 5.284080 0.516915 -2.192480 -6.469440 -0.000000 -169.432000 -4.221140 1.859200 39.081100 -0.000007 -0.000012 0.027937 -0.118423 13.274100 40.985400 -0.000006 -0.000013 -3.900220 14.765800 -67.800600 11.754300 -0.000000 0.000003 -0.000394 0.174020 -9.518300 -2.192510 6.469440 -0.000001 -179.722000 8.579940 -177.257000 -39.081100 -0.002282 -0.040193 0.030419 -0.116529 13.085200 -40.985400 0.000008 0.000006 -2.505450 6.117340 -68.708500 -11.754300 -0.000006 -0.000006 -0.008084 0.256384 -6.160840
0.000000 0.000000 0.000000 0.000000 0.000000 -0.000000 -4.150830 93.035600 0.283543 87.299000 2.658900 2.593390 15.735700 0.000005 -0.000001 63.730200 86.563900 -61.954500 8.984550 -0.406207 -0.000000 -1.552300 -3.185310 3.507980 16.377300 -0.000001 -0.000001 3.849690 0.628407 -0.444802 6.456720 -0.000001 -0.000000 -0.466169 3.034850 -2.620550 12.994200 -0.242716 4.980390 -93.096500 9.781060 -72.336600 5.348090 -0.000007 -0.000001 -71.449100 18.377900 2.345740 24.328600 0.000019 0.000005 10.451300 22.664400 -25.580500 22.291600 -0.000001 0.000005 -1.952160 5.075840 5.661970 12.994500 -0.242716 -4.980390 89.023900 2.871780 -71.217300 -5.348130 -0.000001 -0.000004 -59.902000 11.258200 -7.916400 -24.328900 0.000322 -0.000009 1.994920 9.255190 -12.230700 -22.291500 -0.000108 -0.000004 -17.281900 5.266170 1.002120 -2.192480 -6.469440 -0.000000 -169.542000 -4.731440 1.667340 39.081100 -0.000007 -0.000012 0.030007 -0.128822 13.112400 40.985400 -0.000006 -0.000013 -3.718920 15.533000 -67.838300 11.754300 -0.000000 0.000003 -0.000416 0.174358 -9.504560 -2.192510 6.469440 -0.000001 -179.999000 9.231310 -177.247000 -39.081100 -0.002282 -0.040193 0.024744 -0.094891 12.714400 -40.985400 0.000008 0.000006 -2.896200 6.554140 -68.444700 -11.754300 -0.000006 -0.000006 -0.008152 0.256938 -6.138210
0.000000 0.000000 0.000000 0.000000 0.000000 -0.000000 -4.029730 93.095700 0.424511 87.329700 2.959730 1.954070 15.735700 0.000005 -0.000001 63.226700 86.852000 -61.877600 8.984550 -0.406207 -0.000000 -2.109900 -2.951520 2.643920 16.377300 -0.000001 -0.000001 3.379310 0.077980 -0.478601 6.456720 -0.000001 -0.000000 -0.894493 2.245890 -3.045590 12.994200 -0.242716 4.980390 -93.063600 9.598890 -72.205200 5.348090 -0.000007 -0.000001 -70.313700 16.602900 2.347520 24.328600 0.000019 0.000005 10.661000 22.938700 -25.780400 22.291600 -0.000001 0.000005 -1.249440 5.069260 5.808590 12.994500 -0.242716 -4.980390 89.168600 2.357170 -70.564000 -5.348130 -0.000001 -0.000004 -54.422700 4.872300 -9.464670 -24.328900 0.000322 -0.000009 1.700280 11.278600 -8.636280 -22.291500 -0.000108 -0.000004 -14.877300 5.259930 1.163520 -2.192480 -6.469440 -0.000000 -169.578000 -4.989230 1.325070 39.081100 -0.000007 -0.000012 0.020508 -0.092342 12.522000 40.985400 -0.000006 -0.000013 -4.334450 16.090300 -67.304400 11.754300 -0.000000 0.000003 -0.000353 0.173369 -9.544730 -2.192510 6.469440 -0.000001 179.769000 10.197600 -177.374000 -39.081100 -0.002282 -0.040193 0.014178 -0.051397 11.911500 -40.985400 0.000008 0.000006 -3.727540 7.342470 -67.805300 -11.754300 -0.000006 -0.000006 -0.008013 0.255810 -6.184290
